<svg 
  xmlns="http://www.w3.org/2000/svg" 
  xml:space="preserve" 
  width="280mm" 
  height="180mm" 
  style="shape-rendering:geometricPrecision;text-rendering:geometricPrecision;image-rendering:optimizeQuality;fill-rule:evenodd;clip-rule:evenodd" 
  viewBox="0 0 28000 18000">

  <path d="M3429 728h1481v1056l864-1056h1790L5952 2820l1694 2482H5884l-974-1412v1412H3429V728zm6142 0h1097l1735 4574h-1440l-151-411H9427l-151 411H7836L9571 728zm857 3155-308-802-309 802h617zm2233-3155h1200l1262 1763V728h1433v4574h-1206l-1255-1755v1755h-1434V728zm7445 1557a834 834 0 0 0-308-168c-124-39-245-58-364-58a864 864 0 0 0-837 576 1061 1061 0 0 0 8 768 921 921 0 0 0 510 504c117 48 242 72 374 72 156 0 297-33 425-100 128-66 238-156 330-270h-412v-961h1762v1523a2524 2524 0 0 1-377 511 2395 2395 0 0 1-1076 648c-211 59-428 89-652 89a2403 2403 0 0 1-1697-693 2381 2381 0 0 1-703-1707 2454 2454 0 0 1 669-1697 2291 2291 0 0 1 1663-703c256 0 477 25 665 75 187 50 345 108 473 172 151 73 277 153 377 240l-830 1179zM8901 6518h1097l1735 4574h-1440l-151-412H8757l-151 412H7166l1735-4574zm857 3154-308-802-309 802h617zm-5081 5790c101 32 206 57 315 75a3021 3021 0 0 0 665 75c211 1 316-77 316-233 0-59-32-120-96-181-64-62-145-131-243-206-99-76-204-159-316-250-112-92-217-197-315-316-99-119-180-252-244-401s-96-319-96-511c0-215 39-404 117-569s185-302 322-411c137-110 298-194 484-251 185-57 382-86 593-86 110 0 219 6 329 18l295 30 295 42v1282l-124-14-123-13a1449 1449 0 0 0-247-4c-41 2-80 8-117 17-36 9-68 25-96 48-27 23-41 55-41 96 0 37 31 83 93 137 62 55 137 119 226 192 89 74 188 158 295 254s206 206 295 329c89 124 164 263 226 419 62 155 93 329 93 521 0 201-32 390-96 566s-164 329-299 459a1425 1425 0 0 1-517 309c-211 75-460 113-748 113a4530 4530 0 0 1-878-83c-132-22-253-50-363-82v-1371zm7296-8944h1578c292 0 563 39 812 116 249 78 465 192 648 343s326 337 429 559 154 477 154 765a1572 1572 0 0 1-308 980c-92 119-195 220-309 302l857 1509h-1714l-686-1159v1159h-1461V6518zm1461 2249h75c174 0 322-39 443-117 121-77 182-208 182-390 0-183-61-314-182-391a802 802 0 0 0-443-117h-75v1015zm4341 2441c-288 0-549-36-782-109-233-74-432-183-597-330a1443 1443 0 0 1-380-555c-89-224-134-487-134-789V6518h1461v2846c0 160 33 282 99 367 67 84 177 126 333 126 155 0 266-42 332-126 67-85 100-207 100-367V6518h1467v2907c0 302-44 565-133 789-90 224-218 409-384 555a1643 1643 0 0 1-600 330c-234 73-494 109-782 109zm2256-4690h1563l-233 3223h-1097l-233-3223zm48 3429h1467v1145h-1467V9947zM8421 13507h-843v-1200h3195v1200h-843v3374H8421v-3374zm2729-1200h1578c292 0 563 39 812 117 249 77 465 192 648 343s326 337 429 559c103 221 154 476 154 764a1572 1572 0 0 1-308 981c-92 119-195 219-309 301l857 1509h-1714l-686-1159v1159h-1461v-4574zm1461 2249h76c173 0 321-38 442-116s182-208 182-391-61-313-182-391a802 802 0 0 0-442-116h-76v1014zm2640 1180h1468v1145h-1468v-1145z" style="fill:#fff;fill-rule:nonzero"/>
</svg>