<svg xmlns="http://www.w3.org/2000/svg" xml:space="preserve" width="280mm" height="180mm" style="shape-rendering:geometricPrecision;text-rendering:geometricPrecision;image-rendering:optimizeQuality;fill-rule:evenodd;clip-rule:evenodd" viewBox="0 0 28000 18000"><path d="M3428.92 728.39h1481.22v1056.06l864.05-1056.06h1789.8l-1611.5 2091.54 1693.8 2482.42H5883.91L4910.14 3889.7v1412.65H3428.92V728.39zm6142.03 0h1097.21l1734.95 4573.96h-1440.07l-150.86-411.46H9426.95l-150.87 411.46H7836L9570.95 728.39zm857.2 3154.46-308.58-802.34-308.6 802.34h617.18zm2233.27-3154.46h1200.06l1261.77 1762.38V728.39h1433.24v4573.96h-1206.94l-1254.92-1755.52v1755.52h-1433.21V728.39zm7444.95 1556.65c-82.28-73.14-185.14-129.15-308.59-168.01-123.43-38.85-244.57-58.28-363.43-58.28-132.59 0-253.73 24-363.46 72-109.72 48-204.58 114.3-284.58 198.87-80.01 84.57-142.87 186.3-188.59 305.16-45.71 118.87-68.57 246.87-68.57 384.02 0 137.15 25.14 265.16 75.43 384.02 50.29 118.87 118.86 220.59 205.73 305.16 86.86 84.57 188.58 150.86 305.16 198.86 116.57 48 241.15 72.01 373.73 72.01 155.44 0 297.15-33.15 425.17-99.44 128-66.28 237.72-156.58 329.16-270.87h-411.45v-960.05h1762.37v1522.36c-105.15 187.45-230.86 357.74-377.16 510.89-146.29 153.16-309.73 284.59-490.31 394.31-180.58 109.72-376.02 194.3-586.32 253.73-210.29 59.43-427.45 89.14-651.46 89.14-329.16 0-640.03-61.71-932.62-185.15-292.59-123.43-547.46-292.58-764.61-507.45-217.15-214.88-388.6-468.6-514.31-761.19-125.72-292.58-188.58-608.03-188.58-946.33 0-329.17 59.43-640.03 178.29-932.62 118.87-292.59 282.3-547.46 490.31-764.61 208.01-217.16 454.89-388.59 740.61-514.31 285.73-125.73 593.18-188.58 922.33-188.58 256.02 0 477.75 25.14 665.18 75.43 187.44 50.28 345.16 107.43 473.18 171.43 150.86 73.14 276.57 153.16 377.16 240.02l-829.77 1179.48zM8901.2 6517.79h1097.2l1734.96 4573.96h-1440.07l-150.86-411.46H8757.2l-150.87 411.46H7166.25L8901.2 6517.79zm857.19 3154.46-308.58-802.34-308.59 802.34h617.17zm-5081.41 5789.4c100.59 32 205.73 57.14 315.45 75.43 91.44 22.85 195.44 41.14 312.02 54.86 116.58 13.71 234.3 20.57 353.16 20.57 210.3 0 315.45-77.72 315.45-233.16 0-59.43-32-120-96.01-181.72-64-61.72-145.15-130.29-243.44-205.72-98.29-75.43-203.44-158.87-315.44-250.3-112.01-91.44-217.16-196.59-315.45-315.45-98.3-118.87-179.44-252.58-243.44-401.16-64.01-148.58-96.01-318.87-96.01-510.89 0-214.86 38.86-404.59 116.58-569.17 77.72-164.58 185.15-301.73 322.31-411.44 137.14-109.73 298.3-193.17 483.44-250.31 185.16-57.15 382.88-85.71 593.19-85.71 109.71 0 219.43 5.71 329.16 17.14 109.71 11.42 208 21.72 294.86 30.86 100.58 13.71 198.87 27.43 294.87 41.14v1282.35c-36.57-4.57-77.71-9.14-123.43-13.72-36.57-4.57-77.71-9.14-123.44-13.71-45.71-4.57-93.71-6.86-144-6.86-27.43 0-61.72 1.15-102.86 3.44-41.15 2.28-80 7.99-116.59 17.13-36.57 9.15-68.57 25.15-96 48.01-27.43 22.85-41.14 54.86-41.14 96.01 0 36.57 30.86 82.29 92.58 137.14 61.71 54.86 137.14 118.86 226.29 192.02 89.15 73.14 187.44 157.72 294.87 253.72 107.44 96.01 205.73 205.73 294.88 329.16 89.14 123.44 164.57 262.87 226.3 418.31 61.71 155.44 92.57 329.16 92.57 521.17 0 201.15-32 389.73-96.01 565.74-64 176.01-163.43 329.17-298.29 459.45-134.86 130.3-307.44 233.16-517.75 308.59-210.3 75.43-459.45 113.15-747.46 113.15-173.73 0-334.88-8-483.46-24-148.57-16-280.01-35.43-394.31-58.28-132.57-22.86-253.72-50.29-363.45-82.3v-1371.49zm7296.41-8943.86h1577.22c292.59 0 563.45 38.86 812.61 116.58 249.16 77.71 465.17 192.01 648.03 342.87 182.88 150.87 325.74 337.17 428.6 558.89 102.86 221.73 154.3 476.6 154.3 764.61 0 228.58-32.01 422.88-96.01 582.9-64.01 160-134.87 292.57-212.58 397.73-91.43 118.86-194.3 219.43-308.59 301.72l857.18 1508.66h-1714.37l-685.75-1158.93v1158.93h-1460.64V6517.79zm1460.64 2249.26h75.43c173.73 0 321.16-38.86 442.31-116.57 121.15-77.72 181.73-208.02 181.73-390.88 0-182.87-60.58-313.16-181.73-390.88-121.15-77.72-268.58-116.58-442.31-116.58h-75.43v1014.91zm4340.8 2441.27c-288.02 0-548.6-36.57-781.75-109.71-233.16-73.16-432.02-182.87-596.61-329.16-164.57-146.3-291.45-331.45-380.6-555.47-89.15-224-133.72-486.87-133.72-788.61V6517.79h1460.66v2845.87c0 160 33.14 282.3 99.44 366.87 66.28 84.58 177.14 126.86 332.58 126.86 155.43 0 266.3-42.28 332.59-126.86 66.28-84.57 99.43-206.87 99.43-366.87V6517.79h1467.51v2907.58c0 301.74-44.57 564.61-133.73 788.61-89.14 224.02-217.14 409.17-384.02 555.47-166.86 146.29-366.87 256-600.03 329.16-233.15 73.14-493.73 109.71-781.75 109.71zm2256.12-4690.53h1563.52l-233.16 3223.03h-1097.2l-233.16-3223.03zm48 3428.75h1467.5v1145.21h-1467.5V9946.54zM8421.19 13507.25h-843.48v-1200.06h3195.61v1200.06h-843.48v3373.9H8421.19v-3373.9zm2729.3-1200.06h1577.22c292.59 0 563.45 38.86 812.61 116.58 249.15 77.71 465.16 192.01 648.03 342.87 182.87 150.87 325.73 337.17 428.6 558.89 102.86 221.73 154.3 476.6 154.3 764.61 0 228.58-32.02 422.88-96.02 582.89-64 160.01-134.86 292.58-212.57 397.74-91.44 118.86-194.3 219.43-308.59 301.72l857.18 1508.66h-1714.38l-685.74-1158.93v1158.93h-1460.64v-4573.96zm1460.64 2249.26h75.43c173.72 0 321.16-38.86 442.3-116.57 121.16-77.72 181.73-208.02 181.73-390.88 0-182.87-60.57-313.16-181.73-390.88-121.14-77.72-268.58-116.58-442.3-116.58h-75.43v1014.91zm2640.14 1179.49h1467.51v1145.21h-1467.51v-1145.21z" style="fill:#fff;fill-rule:nonzero"/></svg>